<svg width="180" height="90" viewBox="0 0 180 90" fill="none" xmlns="http://www.w3.org/2000/svg">
<g clip-path="url(#clip0_38_219)">
<rect x="0.5" y="0.5" width="179" height="89" rx="9.5" stroke="black"/>
<path d="M32.9742 43.62C40.0542 44.28 47.6742 47.4 47.6742 54.72C47.6742 63.18 37.7142 66 29.9742 66H13.4742C13.4742 66 13.4742 65.7 13.4742 65.58C14.3742 65.04 14.7942 64.14 14.7942 62.04V28.02C14.7942 25.92 14.3742 25.02 13.4742 24.48C13.4742 24.36 13.4742 24 13.4742 24H27.3942C35.1342 24 45.0942 25.56 45.0942 34.02C45.0942 40.44 39.2142 42.84 32.9742 43.62ZM19.5342 24.48V43.44H27.3942C37.2342 43.44 40.3542 39.3 40.3542 34.02C40.3542 28.68 37.2342 24.48 27.3942 24.48H19.5342ZM29.9742 65.58C39.8142 65.58 42.9942 60.06 42.9942 54.72C42.9942 49.44 39.8142 43.92 29.9742 43.92H19.5342V65.58H29.9742ZM51.2672 44.76H74.3672V45.24H51.2672V44.76ZM100.398 55.38L100.698 55.5C99.5578 61.14 97.0378 66.36 90.7378 66.36C85.3978 66.36 82.0978 62.88 82.0978 55.8V37.62H78.5578V37.14C83.6578 37.14 84.0778 31.8 84.0778 28.92H88.8178C88.8178 33.54 84.2578 36.96 80.6578 37.14H93.9178V37.62H86.8378V56.7C86.8378 61.92 88.2778 65.94 93.3778 65.28C97.3378 64.74 99.3178 60 100.398 55.38ZM116.652 37.14C119.892 37.14 121.752 38.28 123.792 40.68L120.132 45.84L119.712 45.6C119.592 42.18 117.912 37.74 114.672 38.22C108.792 39.12 108.012 54.6 108.012 59.7V62.04C108.012 64.14 108.432 65.04 109.332 65.58C109.332 65.7 109.332 66 109.332 66H101.892C101.892 66 101.892 65.7 101.892 65.58C102.852 65.04 103.272 64.14 103.272 62.04V41.76C103.272 39.66 103.092 39.06 101.892 38.88C101.892 38.76 101.892 38.46 101.892 38.46L107.532 37.14H108.012V53.22C108.612 45.96 110.292 37.14 116.652 37.14ZM131.683 62.04C131.683 64.14 132.103 65.04 133.063 65.58C133.063 65.7 133.063 66 133.063 66H125.623C125.623 66 125.623 65.7 125.623 65.58C126.523 65.04 126.943 64.14 126.943 62.04V41.76C126.943 39.66 126.763 39.06 125.623 38.88C125.623 38.76 125.623 38.46 125.623 38.46L131.263 37.14H131.683V62.04ZM129.163 32.28C127.603 32.28 126.343 31.02 126.343 29.46C126.343 27.9 127.603 26.64 129.163 26.64C130.723 26.64 131.983 27.9 131.983 29.46C131.983 31.02 130.723 32.28 129.163 32.28ZM155.883 37.14C160.803 37.14 166.803 41.34 167.043 48.96C167.403 63.84 153.603 66.36 146.883 66.36C145.563 66.36 144.363 66.12 143.343 65.82V76.14C143.343 78.24 143.523 78.84 144.663 79.02C144.663 79.14 144.663 79.44 144.663 79.44L139.023 80.76H138.603V41.76C138.603 39.66 138.423 39.06 137.283 38.88C137.283 38.76 137.283 38.46 137.283 38.46L142.923 37.14H143.343V53.58C144.423 46.62 147.483 37.14 155.883 37.14ZM146.943 66C152.703 65.94 163.203 63.42 162.363 48.12C162.063 42.9 158.403 37.2 153.243 38.22C146.523 39.54 143.343 52.08 143.343 57.12V65.46C143.643 65.58 145.023 66.06 146.943 66Z" fill="black"/>
</g>
<defs>
<clipPath id="clip0_38_219">
<rect width="180" height="90" fill="white"/>
</clipPath>
</defs>
</svg>
